<?xml version="1.0" standalone="no"?>
<!DOCTYPE svg PUBLIC "-//W3C//DTD SVG 20010904//EN"
 "http://www.w3.org/TR/2001/REC-SVG-20010904/DTD/svg10.dtd">
<svg version="1.0" xmlns="http://www.w3.org/2000/svg"
 width="700.000000pt" height="700.000000pt" viewBox="0 0 700.000000 700.000000"
 preserveAspectRatio="xMidYMid meet">
<metadata>
Created by potrace 1.11, written by Peter Selinger 2001-2013
</metadata>
<g transform="translate(0.000000,700.000000) scale(0.100000,-0.100000)"
fill="#000000" stroke="none">
<path d="M3278 6995 c-2 -1 -37 -5 -78 -8 -122 -10 -266 -30 -370 -52 -14 -3
-47 -10 -75 -15 -96 -19 -273 -70 -406 -116 -1015 -353 -1811 -1153 -2159
-2170 -37 -108 -85 -272 -95 -325 -2 -11 -6 -28 -9 -37 -3 -9 -7 -28 -10 -42
-11 -67 -28 -158 -32 -180 -3 -14 -7 -45 -10 -70 -3 -25 -7 -56 -9 -70 -20
-114 -27 -567 -12 -719 96 -942 517 -1754 1222 -2358 112 -95 308 -239 407
-298 135 -81 195 -114 306 -169 72 -36 133 -66 136 -66 3 0 29 -11 58 -24 232
-105 629 -214 883 -241 28 -3 55 -8 62 -10 56 -19 546 -27 717 -12 129 12 176
19 471 73 56 11 330 93 425 127 766 280 1416 825 1827 1532 219 376 390 871
438 1270 4 28 8 61 11 75 31 175 24 667 -12 890 -3 19 -7 49 -9 65 -10 71 -57
287 -81 370 -14 49 -27 97 -29 105 -6 27 -81 233 -119 324 -78 188 -202 417
-319 591 -55 81 -165 231 -192 262 -5 6 -28 33 -50 59 -114 137 -284 305 -440
434 -289 241 -596 422 -950 563 -287 114 -581 187 -915 228 -81 10 -573 22
-582 14z m362 -555 l0 -170 168 0 167 0 0 -180 1 -180 -168 0 -168 0 0 -140
c0 -125 2 -141 18 -146 77 -26 153 -74 217 -138 114 -115 162 -241 152 -396
-3 -47 -13 -107 -22 -135 -80 -237 -293 -391 -540 -388 -267 2 -490 189 -542
453 -9 45 -9 162 0 220 14 87 79 202 157 277 33 32 128 90 162 98 15 4 28 12
30 18 4 11 3 249 -1 270 0 4 -75 7 -166 7 l-165 0 0 180 0 180 164 0 c122 0
165 3 168 13 2 6 4 83 4 170 l-1 157 183 0 182 0 0 -170z m750 -2014 c103 -33
117 -39 202 -93 71 -44 173 -142 183 -174 6 -19 7 -19 33 -1 71 50 220 114
292 127 14 3 47 9 74 14 129 24 326 -2 482 -65 276 -110 468 -359 499 -647 21
-199 -2 -413 -66 -594 -33 -93 -115 -271 -153 -332 -143 -228 -185 -287 -326
-456 -126 -153 -431 -461 -460 -466 -3 0 -752 -1 -1665 -2 l-1660 -2 -75 66
c-104 92 -259 254 -370 389 -290 349 -498 747 -547 1045 -3 17 -8 49 -13 72
-8 47 -6 273 4 314 60 264 207 460 429 573 147 75 219 91 412 90 129 -1 164
-4 249 -27 55 -15 139 -46 186 -69 l87 -43 34 41 c152 181 440 282 709 251
180 -22 359 -108 485 -234 l55 -55 74 70 c114 108 230 174 369 212 103 27 108
28 257 25 113 -3 149 -7 220 -29z m758 -3193 l-3 -197 -1663 0 -1662 -1 0 198
0 197 1665 0 1665 0 -2 -197z"/>
<path d="M3424 5333 c-84 -29 -146 -116 -146 -207 -1 -66 20 -115 71 -164 87
-84 224 -81 311 8 163 166 -15 439 -236 363z"/>
<path d="M4068 4085 c-2 -2 -19 -7 -38 -10 -71 -13 -162 -64 -225 -129 -212
-217 -172 -546 82 -673 l62 -31 -71 -109 c-76 -116 -133 -187 -213 -268 -91
-91 -157 -145 -179 -145 -21 0 -103 78 -242 230 -64 71 -214 259 -214 270 0 6
8 10 19 10 30 0 140 79 173 124 82 112 98 219 59 388 -5 20 -7 39 -5 41 3 2
-2 10 -11 17 -8 7 -15 21 -15 32 0 10 -7 21 -15 24 -8 4 -29 19 -47 36 -41 38
-130 90 -201 117 -80 29 -165 28 -268 -5 -67 -21 -90 -34 -129 -73 -92 -92
-128 -192 -124 -346 3 -122 3 -123 34 -215 39 -116 85 -203 183 -350 79 -117
133 -185 307 -385 43 -49 397 -404 463 -464 l49 -44 51 49 c100 96 383 380
437 439 170 187 351 436 435 600 118 232 141 448 68 635 -44 111 -129 194
-228 222 -38 10 -189 20 -197 13z"/>
<path d="M1549 3873 c-158 -41 -234 -96 -288 -212 -23 -50 -26 -68 -26 -166 0
-131 7 -182 38 -295 62 -222 207 -487 387 -706 94 -115 132 -158 228 -261 l95
-103 478 0 477 0 -76 79 c-296 303 -481 534 -618 771 -132 226 -194 422 -199
630 -2 58 -4 108 -4 112 -2 10 -99 77 -165 113 -122 66 -190 74 -327 38z"/>
<path d="M5188 3860 c-66 -23 -192 -88 -239 -123 -12 -9 -17 -38 -22 -127 -3
-63 -8 -128 -12 -145 -3 -16 -8 -43 -11 -60 -11 -53 -61 -198 -92 -265 -124
-268 -349 -568 -685 -914 l-88 -91 488 -3 488 -2 79 82 c361 380 578 716 652
1008 14 58 19 111 19 230 0 140 -2 160 -23 204 -52 114 -133 178 -274 216
-102 27 -183 25 -280 -10z"/>
</g>
</svg>
